<?xml version="1.0" standalone="no"?>
<!DOCTYPE svg PUBLIC "-//W3C//DTD SVG 20010904//EN"
 "http://www.w3.org/TR/2001/REC-SVG-20010904/DTD/svg10.dtd">
<svg version="1.0" xmlns="http://www.w3.org/2000/svg"
 width="862.000000pt" height="862.000000pt" viewBox="0 0 862.000000 862.000000"
 preserveAspectRatio="xMidYMid meet">
<metadata>
Created by potrace 1.11, written by Peter Selinger 2001-2013
</metadata>
<g transform="translate(0.000000,862.000000) scale(0.100000,-0.100000)"
fill="#000000" stroke="none">
<path d="M5281 8585 c-56 -51 -92 -139 -99 -240 -10 -165 64 -268 160 -220
133 68 185 353 83 461 -45 47 -90 47 -144 -1z m106 -47 c72 -79 45 -315 -40
-356 -60 -29 -101 38 -100 163 1 155 78 261 140 193z"/>
<path d="M6511 8185 c-173 -49 -325 -193 -434 -410 -70 -142 -145 -406 -171
-608 -16 -118 -33 -426 -23 -417 3 3 19 102 37 220 37 256 58 354 106 496 113
340 255 548 430 631 77 37 82 38 189 38 88 -1 122 -5 170 -23 125 -46 223
-138 266 -249 30 -80 30 -230 0 -325 -27 -83 -91 -160 -135 -160 -41 0 -77 40
-83 95 -7 60 11 108 63 173 24 30 41 54 37 54 -25 0 -114 -65 -133 -95 -34
-55 -39 -150 -10 -209 59 -123 205 -96 279 51 57 114 67 327 21 446 -47 124
-154 227 -285 277 -78 30 -244 37 -324 15z"/>
<path d="M5093 8078 c-55 -62 -88 -243 -80 -433 6 -131 22 -213 65 -327 74
-198 277 -509 409 -628 57 -50 213 -160 228 -160 4 0 -40 46 -99 101 -59 56
-133 134 -165 173 -177 217 -301 472 -347 713 -22 117 -22 313 1 413 22 100
30 170 18 170 -5 0 -19 -10 -30 -22z"/>
<path d="M5919 6586 c-135 -39 -271 -158 -338 -298 -68 -140 -84 -218 -85
-398 0 -122 5 -174 21 -246 80 -343 301 -615 572 -703 88 -29 224 -29 311 0
339 111 498 573 354 1029 -90 286 -296 521 -527 602 -77 26 -239 34 -308 14z"/>
<path d="M1536 6520 c-69 -22 -106 -85 -106 -182 0 -247 82 -640 186 -901 118
-295 269 -525 483 -737 361 -358 815 -561 1489 -665 385 -60 790 -63 1112 -9
345 58 673 199 855 368 88 83 67 106 -257 273 -139 72 -638 328 -1108 568
-470 241 -1214 622 -1653 847 -439 224 -815 415 -834 423 -46 19 -130 27 -167
15z"/>
<path d="M5977 4696 c-27 -7 -61 -22 -75 -33 -50 -37 -52 -52 -20 -176 40
-155 58 -296 58 -472 0 -434 -94 -988 -246 -1445 -258 -774 -690 -1363 -1439
-1965 -145 -117 -342 -262 -480 -355 -152 -102 -305 -214 -305 -222 0 -24 72
3 390 145 326 146 413 187 585 279 148 79 382 216 460 268 22 15 83 56 135 90
684 456 1223 1030 1514 1610 177 355 261 667 273 1021 9 257 -26 513 -101 740
-80 246 -244 427 -451 499 -77 27 -230 36 -298 16z"/>
<path d="M1540 3872 c-91 -45 -73 -156 62 -382 245 -408 667 -725 1153 -865
193 -56 309 -70 575 -70 264 1 379 14 604 71 334 84 654 242 911 449 111 89
285 245 285 256 0 13 -14 5 -208 -119 -429 -273 -648 -378 -962 -458 -687
-175 -1197 -104 -1719 239 -131 86 -301 219 -362 284 -96 100 -240 300 -280
387 -39 86 -14 126 79 126 68 0 140 -20 327 -90 352 -133 627 -200 1017 -250
379 -48 753 -61 1124 -40 441 26 759 82 1006 178 109 43 168 53 168 29 0 -8
-32 -61 -72 -118 l-72 -104 50 42 c116 98 244 255 244 299 0 46 -81 50 -146 8
-44 -30 -368 -105 -609 -143 -595 -93 -1198 -81 -1907 39 -280 47 -471 88
-842 180 -298 75 -365 83 -426 52z"/>
</g>
</svg>
